<?xml version="1.0" standalone="no"?>
<!DOCTYPE svg PUBLIC "-//W3C//DTD SVG 20010904//EN"
 "http://www.w3.org/TR/2001/REC-SVG-20010904/DTD/svg10.dtd">
<svg version="1.0" xmlns="http://www.w3.org/2000/svg"
 width="300.000000pt" height="96.000000pt" viewBox="0 0 300.000000 96.000000"
 preserveAspectRatio="xMidYMid meet">

<g transform="translate(0.000000,96.000000) scale(0.100000,-0.100000)"
fill="#000000" stroke="none">
<path d="M360 870 c-47 -44 -84 -85 -83 -90 2 -6 0 -9 -5 -8 -13 2 -42 -14
-42 -24 0 -5 6 -6 13 -1 6 4 20 9 31 10 16 3 17 1 6 -12 -7 -8 -9 -15 -4 -15
5 0 18 13 29 30 15 22 25 28 40 24 13 -3 16 -2 7 4 -9 6 -6 14 13 32 22 21 30
20 26 -3 -1 -4 21 4 48 17 27 14 51 22 55 19 3 -3 8 1 11 9 4 10 14 14 27 10
14 -3 19 -1 14 6 -4 7 -3 12 3 12 5 0 15 -8 21 -17 10 -16 10 -16 5 2 -4 16 2
23 26 32 40 15 53 8 32 -17 -9 -10 -21 -16 -26 -13 -6 3 -7 1 -4 -4 9 -14 -19
-37 -34 -27 -7 4 -9 3 -5 -4 3 -6 -17 -33 -46 -61 -52 -50 -54 -51 -118 -52
l-65 -2 65 -8 65 -8 107 106 c58 58 104 112 101 118 -3 9 -37 13 -116 14
l-112 1 -85 -80z m304 49 c-6 -11 -24 -2 -24 11 0 5 7 7 15 4 8 -4 12 -10 9
-15z m-354 -143 c0 -3 -4 -8 -10 -11 -5 -3 -10 -1 -10 4 0 6 5 11 10 11 6 0
10 -2 10 -4z"/>
<path d="M588 809 l-114 -121 -124 15 c-69 9 -126 14 -128 12 -2 -1 3 -18 11
-37 l14 -34 129 -22 c70 -12 129 -20 129 -19 1 1 54 62 119 135 117 131 118
133 106 162 -7 17 -16 30 -20 30 -5 0 -60 -54 -122 -121z"/>
<path d="M370 815 c-7 -9 -8 -15 -2 -15 5 0 12 7 16 15 3 8 4 15 2 15 -2 0 -9
-7 -16 -15z"/>
<path d="M880 686 l-114 -146 -35 6 c-20 4 -78 14 -129 24 l-92 17 -42 -46
c-23 -25 -74 -81 -114 -123 l-73 -76 -127 34 c-70 19 -128 33 -130 32 -1 -2 6
-17 16 -34 17 -27 35 -35 147 -67 71 -20 133 -37 139 -37 5 0 57 54 114 120
99 116 104 121 134 114 17 -4 77 -17 132 -29 l102 -22 106 142 c58 78 106 151
106 161 -1 10 -6 32 -13 48 l-12 28 -115 -146z"/>
<path d="M1863 803 c-7 -2 -13 -18 -13 -34 0 -24 -4 -29 -25 -29 -16 0 -25 -6
-25 -15 0 -9 9 -15 25 -15 l25 0 0 -114 c0 -79 4 -117 13 -124 12 -11 47 -16
80 -14 28 3 20 30 -10 34 l-28 3 -3 108 -3 107 31 0 c20 0 30 5 30 15 0 10
-10 15 -30 15 -28 0 -30 3 -30 35 0 34 -8 40 -37 28z"/>
<path d="M1200 600 l0 -140 25 0 25 0 0 103 c0 109 3 118 37 136 32 16 60 14
83 -9 17 -17 20 -33 20 -125 l0 -105 25 0 c25 0 25 0 25 99 0 54 -5 112 -10
128 -19 53 -104 71 -154 32 l-26 -20 0 20 c0 16 -6 21 -25 21 l-25 0 0 -140z"/>
<path d="M1574 729 c-56 -28 -78 -152 -38 -220 48 -82 192 -70 218 19 6 19 4
22 -18 22 -15 0 -26 -6 -26 -13 0 -24 -36 -47 -73 -47 -41 0 -77 36 -77 76 0
24 2 24 100 24 l100 0 0 35 c0 47 -19 84 -51 101 -32 16 -104 18 -135 3z m118
-36 c10 -9 18 -28 18 -42 0 -26 -1 -26 -72 -25 -70 1 -73 2 -70 25 1 12 10 31
19 41 20 23 80 24 105 1z"/>
<path d="M1210 350 c-28 -28 -28 -102 1 -131 16 -16 28 -20 52 -15 17 4 36 11
41 16 15 15 -2 24 -18 11 -44 -37 -97 22 -76 84 14 41 44 54 71 29 10 -9 22
-14 27 -10 10 11 -28 36 -55 36 -13 0 -32 -9 -43 -20z"/>
<path d="M1400 350 c-14 -14 -20 -33 -20 -63 0 -60 18 -82 69 -82 50 0 70 23
71 83 0 51 -26 82 -70 82 -17 0 -39 -9 -50 -20z m78 -6 c17 -11 22 -25 22 -58
0 -49 -13 -66 -51 -66 -43 0 -66 48 -47 100 8 25 17 32 48 39 3 0 16 -6 28
-15z"/>
<path d="M1602 283 l2 -88 3 73 c2 39 7 72 11 72 4 0 22 -29 41 -65 51 -95 61
-93 59 13 l-2 87 -5 -69 c-7 -77 -8 -77 -57 11 -43 78 -54 70 -52 -34z"/>
<path d="M1816 357 c-32 -23 -17 -57 34 -76 33 -12 45 -22 45 -36 0 -27 -54
-34 -72 -9 -15 20 -28 13 -20 -10 14 -36 99 -28 114 10 10 25 -9 46 -55 62
-44 14 -52 31 -26 53 14 11 21 11 45 -3 30 -17 39 -12 17 10 -16 16 -60 15
-82 -1z"/>
<path d="M1990 305 c0 -53 4 -69 21 -86 22 -22 67 -21 96 2 16 14 19 149 3
149 -6 0 -10 -30 -10 -70 0 -67 -1 -70 -27 -76 -44 -12 -58 6 -61 80 -4 85
-22 86 -22 1z"/>
<path d="M2200 292 c0 -47 4 -82 10 -83 51 -6 90 3 45 10 l-40 6 -2 69 c-3 97
-13 96 -13 -2z"/>
<path d="M2320 360 c0 -5 13 -10 30 -10 l29 0 4 -72 3 -73 2 73 2 72 30 0 c17
0 30 5 30 10 0 6 -28 10 -65 10 -37 0 -65 -4 -65 -10z"/>
<path d="M2510 291 c0 -44 5 -83 10 -86 6 -4 10 25 10 79 0 51 -4 86 -10 86
-6 0 -10 -33 -10 -79z"/>
<path d="M2610 285 c0 -103 18 -114 22 -14 l3 71 38 -65 c56 -96 67 -95 67 8
0 100 -18 115 -22 19 l-3 -66 -38 66 c-54 92 -67 88 -67 -19z"/>
<path d="M2843 355 c-12 -9 -25 -30 -28 -48 -13 -69 33 -115 102 -102 31 5 33
9 33 45 0 39 -1 40 -32 39 -30 0 -31 -1 -10 -9 15 -6 22 -18 22 -35 0 -24 -12
-31 -50 -25 -49 6 -68 82 -30 120 24 24 38 25 68 4 28 -19 39 -13 17 10 -21
20 -64 21 -92 1z"/>
<path d="M773 225 c-54 -74 -103 -134 -109 -135 -6 0 -76 20 -157 44 -81 24
-147 42 -147 41 0 -1 7 -18 15 -38 10 -25 24 -38 47 -45 206 -64 272 -83 282
-79 6 3 53 66 104 141 86 125 92 138 86 171 -3 19 -10 35 -14 35 -5 0 -53 -61
-107 -135z"/>
</g>
</svg>
