<svg width="114pt" height="50pt" viewBox="0 0 114 50" xmlns="http://www.w3.org/2000/svg"><g id="fontsvg1665628156306" stroke-linecap="round" fill-rule="evenodd" fill="#def30b"><path d="M 0 33.472 L 0 25.806 L 6.323 25.806 L 6.323 33.155 A 17.121 17.121 0 0 0 6.374 34.535 Q 6.547 36.659 7.304 37.367 A 1.39 1.39 0 0 0 7.471 37.5 A 1.978 1.978 0 0 0 8.176 37.788 A 2.789 2.789 0 0 0 8.74 37.842 Q 10.213 37.842 10.695 36.649 A 2.45 2.45 0 0 0 10.706 36.621 A 5.131 5.131 0 0 0 10.936 35.823 Q 11.182 34.659 11.182 32.764 L 11.182 0 L 17.725 0 L 17.725 32.447 A 19.273 19.273 0 0 1 17.487 35.578 Q 16.982 38.639 15.405 40.589 A 7.554 7.554 0 0 1 10.327 43.365 A 11.003 11.003 0 0 1 8.875 43.457 A 11.179 11.179 0 0 1 6.201 43.156 A 7.552 7.552 0 0 1 2.332 40.906 Q 0 38.355 0 33.472 Z M 51.465 42.969 L 45.166 42.969 L 51.294 0 L 59.937 0 L 66.455 42.969 L 60.352 42.969 L 59.326 35.303 L 52.393 35.303 L 51.465 42.969 Z M 77.417 49.927 L 70.947 49.927 L 70.947 6.348 L 77.417 6.348 L 77.417 9.644 A 5.544 5.544 0 0 1 79.59 6.946 A 6.058 6.058 0 0 1 81.308 6.166 A 5.335 5.335 0 0 1 82.703 5.982 A 7.62 7.62 0 0 1 84.136 6.111 A 5.738 5.738 0 0 1 85.547 6.568 A 5.538 5.538 0 0 1 88.257 9.447 A 7.886 7.886 0 0 1 88.611 10.437 A 18.18 18.18 0 0 1 89.11 12.816 Q 89.404 14.839 89.404 17.383 L 89.404 30.738 Q 89.404 35.628 88.687 38.263 A 8.101 8.101 0 0 1 88.159 39.71 Q 87.093 41.874 85.4 42.722 A 4.937 4.937 0 0 1 84.814 42.969 A 7.44 7.44 0 0 1 83.02 43.365 A 9.174 9.174 0 0 1 82.117 43.409 Q 80.64 43.409 79.407 42.652 Q 78.174 41.895 77.417 40.747 L 77.417 49.927 Z M 101.782 49.927 L 95.313 49.927 L 95.313 6.348 L 101.782 6.348 L 101.782 9.644 A 5.544 5.544 0 0 1 103.955 6.946 A 6.058 6.058 0 0 1 105.673 6.166 A 5.335 5.335 0 0 1 107.068 5.982 A 7.62 7.62 0 0 1 108.501 6.111 A 5.738 5.738 0 0 1 109.912 6.568 A 5.538 5.538 0 0 1 112.622 9.447 A 7.886 7.886 0 0 1 112.976 10.437 A 18.18 18.18 0 0 1 113.475 12.816 Q 113.77 14.839 113.77 17.383 L 113.77 30.738 Q 113.77 35.628 113.053 38.263 A 8.101 8.101 0 0 1 112.524 39.71 Q 111.458 41.874 109.765 42.722 A 4.937 4.937 0 0 1 109.18 42.969 A 7.44 7.44 0 0 1 107.386 43.365 A 9.174 9.174 0 0 1 106.482 43.409 Q 105.005 43.409 103.772 42.652 Q 102.539 41.895 101.782 40.747 L 101.782 49.927 Z M 30.615 42.969 L 24.072 42.969 L 24.072 0 L 33.936 0 A 12.827 12.827 0 0 1 36.371 0.215 Q 37.733 0.479 38.757 1.068 A 5.587 5.587 0 0 1 40.784 3.04 Q 42.527 5.914 42.709 11.462 A 38.951 38.951 0 0 1 42.725 12.11 L 42.725 13.013 A 36.076 36.076 0 0 1 42.564 16.539 Q 42.218 20.053 41.124 22.297 A 9.68 9.68 0 0 1 40.906 22.718 A 6.02 6.02 0 0 1 37.057 25.67 Q 35.774 26.026 34.155 26.026 L 30.615 26.026 L 30.615 42.969 Z M 82.886 31.983 L 82.886 16.797 Q 82.886 12.403 81.689 11.524 A 1.973 1.973 0 0 0 80.954 11.199 Q 80.681 11.137 80.365 11.133 A 3.479 3.479 0 0 0 80.322 11.133 A 2.789 2.789 0 0 0 79.366 11.289 Q 78.647 11.55 78.196 12.247 A 3.06 3.06 0 0 0 78.137 12.342 Q 77.589 13.262 77.458 15.351 A 22.86 22.86 0 0 0 77.417 16.773 L 77.417 32.251 A 25.858 25.858 0 0 0 77.454 33.676 Q 77.564 35.66 78.003 36.731 A 2.453 2.453 0 0 0 78.512 37.53 Q 78.985 38.011 79.722 38.125 A 3.148 3.148 0 0 0 80.2 38.16 A 2.673 2.673 0 0 0 81.062 38.029 Q 81.971 37.721 82.349 36.683 A 6.538 6.538 0 0 0 82.608 35.714 Q 82.815 34.658 82.868 33.101 A 33.209 33.209 0 0 0 82.886 31.983 Z M 107.251 31.983 L 107.251 16.797 Q 107.251 12.403 106.055 11.524 A 1.973 1.973 0 0 0 105.319 11.199 Q 105.046 11.137 104.73 11.133 A 3.479 3.479 0 0 0 104.688 11.133 A 2.789 2.789 0 0 0 103.731 11.289 Q 103.012 11.55 102.561 12.247 A 3.06 3.06 0 0 0 102.502 12.342 Q 101.954 13.262 101.823 15.351 A 22.86 22.86 0 0 0 101.782 16.773 L 101.782 32.251 A 25.858 25.858 0 0 0 101.819 33.676 Q 101.929 35.66 102.368 36.731 A 2.453 2.453 0 0 0 102.878 37.53 Q 103.35 38.011 104.087 38.125 A 3.148 3.148 0 0 0 104.565 38.16 A 2.673 2.673 0 0 0 105.428 38.029 Q 106.336 37.721 106.714 36.683 A 6.538 6.538 0 0 0 106.974 35.714 Q 107.181 34.658 107.233 33.101 A 33.209 33.209 0 0 0 107.251 31.983 Z M 53.027 30.054 L 58.643 30.054 L 55.762 8.472 L 55.664 8.472 L 53.027 30.054 Z M 30.615 5.03 L 30.615 20.63 L 32.861 20.63 Q 34.294 20.63 35.034 19.869 A 2.47 2.47 0 0 0 35.559 19.031 Q 36.137 17.548 36.178 13.576 A 60.387 60.387 0 0 0 36.182 12.94 L 36.182 12.11 A 36.505 36.505 0 0 0 36.131 10.341 Q 36.037 8.646 35.776 7.536 A 6.317 6.317 0 0 0 35.51 6.665 Q 34.991 5.353 33.632 5.094 A 3.848 3.848 0 0 0 32.91 5.03 L 30.615 5.03 Z" vector-effect="non-scaling-stroke"/></g></svg>